# xmcd
#
# Track frame offsets:
# 150
# 17864
# 35600
# 54288
# 65431
# 83036
# 103930
# 121405
#
# Disc length: 1792 seconds
#
#
# Revision: 1
# Processed by: cddbd v1.5.2PL0 Copyright (c) Steve Scherf et al.
# Submitted via: FreeRIP 2.951 
#
DISCID=6506fe08
DTITLE=Sara Evans - Always There
DYEAR=2006
DGENRE=Country
TTITLE0=Suds In The Bucket
TTITLE1=Born To Fly (Acoustic)
TTITLE2=You Ought To Know By Now
TTITLE3=Even Now
TTITLE4=The Great Unknown
TTITLE5=Brooklyn and Austin
TTITLE6=To Be Happy
TTITLE7=Cryin' Game
EXTD=
EXTT0=
EXTT1=
EXTT2=
EXTT3=
EXTT4=
EXTT5=
EXTT6=
EXTT7=
PLAYORDER=
